<svg width="26" height="13" viewBox="0 0 26 13" fill="none" xmlns="http://www.w3.org/2000/svg">
<path opacity="0.35" fill-rule="evenodd" clip-rule="evenodd" d="M3.70001 1.21826C2.62468 1.21826 2.19947 1.30139 1.76056 1.539C1.39002 1.73961 1.10241 2.03077 0.904243 2.40587C0.669516 2.85018 0.587402 3.28063 0.587402 4.3692V9.22359C0.587402 10.3122 0.669516 10.7426 0.904243 11.1869C1.10241 11.562 1.39002 11.8532 1.76056 12.0538C2.19947 12.2914 2.62468 12.3745 3.70001 12.3745H19.8714C20.9467 12.3745 21.372 12.2914 21.8109 12.0538C22.1814 11.8532 22.469 11.562 22.6672 11.1869C22.9019 10.7426 22.984 10.3122 22.984 9.22359V4.3692C22.984 3.28063 22.9019 2.85018 22.6672 2.40587C22.469 2.03077 22.1814 1.73961 21.8109 1.539C21.372 1.30139 20.9467 1.21826 19.8714 1.21826H3.70001Z" stroke="#342121" stroke-width="1.07964"/>
<path opacity="0.4" d="M24.5837 4.63696V8.95552C25.442 8.58977 26.0001 7.73891 26.0001 6.79624C26.0001 5.85357 25.442 5.00272 24.5837 4.63696Z" fill="#342121"/>
<path d="M4.01019 2.83765H19.5614C20.1953 2.83765 20.4252 2.90446 20.6569 3.02992C20.8886 3.15538 21.0705 3.33948 21.1944 3.57407C21.3184 3.80866 21.3844 4.04135 21.3844 4.68303V8.90962C21.3844 9.5513 21.3184 9.78399 21.1944 10.0186C21.0705 10.2532 20.8886 10.4373 20.6569 10.5627C20.4252 10.6882 20.1953 10.755 19.5614 10.755H4.01019C3.37631 10.755 3.14646 10.6882 2.91472 10.5627C2.68299 10.4373 2.50112 10.2532 2.37719 10.0186C2.25326 9.78399 2.18726 9.5513 2.18726 8.90962V4.68303C2.18726 4.04135 2.25326 3.80866 2.37719 3.57407C2.50112 3.33948 2.68299 3.15538 2.91472 3.02992C3.14646 2.90446 3.37631 2.83765 4.01019 2.83765Z" fill="#342121"/>
</svg>
