<svg width="26" height="13" viewBox="0 0 26 13" fill="none" xmlns="http://www.w3.org/2000/svg">
<path opacity="0.35" fill-rule="evenodd" clip-rule="evenodd" d="M3.69989 1.21826C2.62456 1.21826 2.19934 1.30139 1.76044 1.539C1.3899 1.73961 1.10229 2.03077 0.904121 2.40587C0.669393 2.85018 0.58728 3.28063 0.58728 4.3692V9.22359C0.58728 10.3122 0.669393 10.7426 0.904121 11.1869C1.10229 11.562 1.3899 11.8532 1.76044 12.0538C2.19934 12.2914 2.62456 12.3745 3.69989 12.3745H19.8713C20.9466 12.3745 21.3718 12.2914 21.8107 12.0538C22.1813 11.8532 22.4689 11.562 22.6671 11.1869C22.9018 10.7426 22.9839 10.3122 22.9839 9.22359V4.3692C22.9839 3.28063 22.9018 2.85018 22.6671 2.40587C22.4689 2.03077 22.1813 1.73961 21.8107 1.539C21.3718 1.30139 20.9466 1.21826 19.8713 1.21826H3.69989Z" stroke="#342121" stroke-width="1.07964"/>
<path opacity="0.4" d="M24.5837 4.63696V8.95552C25.442 8.58977 26.0001 7.73891 26.0001 6.79624C26.0001 5.85357 25.442 5.00272 24.5837 4.63696Z" fill="#342121"/>
<path d="M4.01007 2.83765H19.5613C20.1952 2.83765 20.425 2.90446 20.6568 3.02992C20.8885 3.15538 21.0704 3.33948 21.1943 3.57407C21.3182 3.80866 21.3842 4.04135 21.3842 4.68303V8.90962C21.3842 9.5513 21.3182 9.78399 21.1943 10.0186C21.0704 10.2532 20.8885 10.4373 20.6568 10.5627C20.425 10.6882 20.1952 10.755 19.5613 10.755H4.01007C3.37619 10.755 3.14633 10.6882 2.9146 10.5627C2.68287 10.4373 2.501 10.2532 2.37707 10.0186C2.25313 9.78399 2.18713 9.5513 2.18713 8.90962V4.68303C2.18713 4.04135 2.25313 3.80866 2.37707 3.57407C2.501 3.33948 2.68287 3.15538 2.9146 3.02992C3.14633 2.90446 3.37619 2.83765 4.01007 2.83765Z" fill="#342121"/>
</svg>
