<svg width="20" height="12" viewBox="0 0 20 12" fill="none" xmlns="http://www.w3.org/2000/svg">
<path d="M1.97178 7.23568H3.03828C3.6273 7.23568 4.10479 7.71905 4.10479 8.31532V10.4746C4.10479 11.0709 3.6273 11.5542 3.03828 11.5542H1.97178C1.38276 11.5542 0.905273 11.0709 0.905273 10.4746V8.31532C0.905273 7.71905 1.38276 7.23568 1.97178 7.23568ZM6.94879 5.0764H8.0153C8.60431 5.0764 9.0818 5.55977 9.0818 6.15604V10.4746C9.0818 11.0709 8.60431 11.5542 8.0153 11.5542H6.94879C6.35978 11.5542 5.88229 11.0709 5.88229 10.4746V6.15604C5.88229 5.55977 6.35978 5.0764 6.94879 5.0764ZM11.9258 2.55724H12.9923C13.5814 2.55724 14.0589 3.04062 14.0589 3.63688V10.4746C14.0589 11.0709 13.5814 11.5542 12.9923 11.5542H11.9258C11.3368 11.5542 10.8593 11.0709 10.8593 10.4746V3.63688C10.8593 3.04062 11.3368 2.55724 11.9258 2.55724ZM16.9029 0.0380859H17.9694C18.5584 0.0380859 19.0359 0.521457 19.0359 1.11773V10.4746C19.0359 11.0709 18.5584 11.5542 17.9694 11.5542H16.9029C16.3138 11.5542 15.8363 11.0709 15.8363 10.4746V1.11773C15.8363 0.521457 16.3138 0.0380859 16.9029 0.0380859Z" fill="#342121"/>
</svg>
