<svg width="20" height="12" viewBox="0 0 20 12" fill="none" xmlns="http://www.w3.org/2000/svg">
<path d="M1.97184 7.23568H3.03835C3.62736 7.23568 4.10485 7.71905 4.10485 8.31532V10.4746C4.10485 11.0709 3.62736 11.5542 3.03835 11.5542H1.97184C1.38282 11.5542 0.905334 11.0709 0.905334 10.4746V8.31532C0.905334 7.71905 1.38282 7.23568 1.97184 7.23568ZM6.94885 5.0764H8.01536C8.60437 5.0764 9.08186 5.55977 9.08186 6.15604V10.4746C9.08186 11.0709 8.60437 11.5542 8.01536 11.5542H6.94885C6.35984 11.5542 5.88235 11.0709 5.88235 10.4746V6.15604C5.88235 5.55977 6.35984 5.0764 6.94885 5.0764ZM11.9259 2.55724H12.9924C13.5814 2.55724 14.0589 3.04062 14.0589 3.63688V10.4746C14.0589 11.0709 13.5814 11.5542 12.9924 11.5542H11.9259C11.3369 11.5542 10.8594 11.0709 10.8594 10.4746V3.63688C10.8594 3.04062 11.3369 2.55724 11.9259 2.55724ZM16.9029 0.0380859H17.9694C18.5584 0.0380859 19.0359 0.521457 19.0359 1.11773V10.4746C19.0359 11.0709 18.5584 11.5542 17.9694 11.5542H16.9029C16.3139 11.5542 15.8364 11.0709 15.8364 10.4746V1.11773C15.8364 0.521457 16.3139 0.0380859 16.9029 0.0380859Z" fill="#342121"/>
</svg>
