<svg width="17" height="13" viewBox="0 0 17 13" fill="none" xmlns="http://www.w3.org/2000/svg">
<path d="M8.54564 3.1417C10.9183 3.14181 13.2003 4.06394 14.9199 5.71751C15.0494 5.84517 15.2563 5.84356 15.3839 5.7139L16.6217 4.45037C16.6862 4.3846 16.7222 4.29552 16.7217 4.20283C16.7212 4.11015 16.6841 4.0215 16.6188 3.9565C12.1054 -0.418444 4.98509 -0.418444 0.471736 3.9565C0.406356 4.02145 0.36927 4.11007 0.36866 4.20276C0.368065 4.29545 0.404018 4.38455 0.468547 4.45037L1.70667 5.7139C1.83412 5.84376 2.04129 5.84537 2.1707 5.71751C3.8905 4.06383 6.17272 3.1417 8.54564 3.1417ZM8.54564 7.25252C9.84928 7.25244 11.1064 7.74255 12.0727 8.62761C12.2034 8.75322 12.4093 8.75049 12.5367 8.62147L13.7731 7.35794C13.8382 7.29166 13.8743 7.20175 13.8734 7.10832C13.8724 7.0149 13.8345 6.92575 13.7681 6.86083C10.8254 4.09219 6.26833 4.09219 3.32567 6.86083C3.2592 6.92575 3.2213 7.01494 3.22041 7.1084C3.21955 7.20186 3.2558 7.29176 3.32105 7.35794L4.55706 8.62147C4.68446 8.75049 4.89035 8.75322 5.02105 8.62761C5.98674 7.74313 7.24287 7.25307 8.54564 7.25252ZM10.9217 10.268C10.9878 10.2024 11.0242 10.1121 11.0223 10.0184C11.0204 9.92469 10.9804 9.83595 10.9117 9.77309C9.54583 8.60463 7.54543 8.60463 6.1796 9.77309C6.11083 9.83589 6.07073 9.92462 6.06877 10.0183C6.06681 10.112 6.10317 10.2023 6.16925 10.268L8.30828 12.4511C8.37097 12.5152 8.45646 12.5513 8.54564 12.5513C8.63483 12.5513 8.72029 12.5152 8.78298 12.4511L10.9217 10.268Z" fill="#342121"/>
</svg>
