<svg width="17" height="13" viewBox="0 0 17 13" fill="none" xmlns="http://www.w3.org/2000/svg">
<path d="M8.54552 3.1417C10.9182 3.14181 13.2002 4.06394 14.9198 5.71751C15.0492 5.84517 15.2562 5.84356 15.3837 5.7139L16.6215 4.45037C16.6861 4.3846 16.7221 4.29552 16.7216 4.20283C16.7211 4.11015 16.684 4.0215 16.6187 3.9565C12.1053 -0.418444 4.98497 -0.418444 0.471614 3.9565C0.406234 4.02145 0.369148 4.11007 0.368538 4.20276C0.367942 4.29545 0.403896 4.38455 0.468425 4.45037L1.70655 5.7139C1.834 5.84376 2.04117 5.84537 2.17058 5.71751C3.89038 4.06383 6.1726 3.1417 8.54552 3.1417ZM8.54552 7.25252C9.84916 7.25244 11.1063 7.74255 12.0726 8.62761C12.2033 8.75322 12.4092 8.75049 12.5366 8.62147L13.773 7.35794C13.8381 7.29166 13.8742 7.20175 13.8733 7.10832C13.8723 7.0149 13.8344 6.92575 13.768 6.86083C10.8253 4.09219 6.26821 4.09219 3.32554 6.86083C3.25907 6.92575 3.22117 7.01494 3.22029 7.1084C3.21943 7.20186 3.25568 7.29176 3.32092 7.35794L4.55693 8.62147C4.68434 8.75049 4.89023 8.75322 5.02093 8.62761C5.98661 7.74313 7.24275 7.25307 8.54552 7.25252ZM10.9215 10.268C10.9877 10.2024 11.0241 10.1121 11.0222 10.0184C11.0203 9.92469 10.9803 9.83595 10.9115 9.77309C9.54571 8.60463 7.54531 8.60463 6.17947 9.77309C6.11071 9.83589 6.07061 9.92462 6.06865 10.0183C6.06669 10.112 6.10305 10.2023 6.16912 10.268L8.30816 12.4511C8.37085 12.5152 8.45634 12.5513 8.54552 12.5513C8.63471 12.5513 8.72016 12.5152 8.78286 12.4511L10.9215 10.268Z" fill="#342121"/>
</svg>
